<mxfile host="app.diagrams.net" agent="Mozilla/5.0 (Windows NT 10.0; Win64; x64) AppleWebKit/537.36 (KHTML, like Gecko) Chrome/134.0.0.0 Safari/537.36" version="26.2.8">
  <diagram name="Página-1" id="9LuBfqF0Ye5HttQomdz3">
    <mxGraphModel dx="1283" dy="527" grid="1" gridSize="10" guides="1" tooltips="1" connect="1" arrows="1" fold="1" page="1" pageScale="1" pageWidth="827" pageHeight="1169" math="0" shadow="0">
      <root>
        <mxCell id="0" />
        <mxCell id="1" parent="0" />
        <mxCell id="TEoPaOZpnHWNgnak06fM-1" value="Cliente" style="rounded=0;whiteSpace=wrap;html=1;" vertex="1" parent="1">
          <mxGeometry x="70" width="120" height="40" as="geometry" />
        </mxCell>
        <mxCell id="TEoPaOZpnHWNgnak06fM-10" style="edgeStyle=orthogonalEdgeStyle;rounded=0;orthogonalLoop=1;jettySize=auto;html=1;exitX=0.5;exitY=0;exitDx=0;exitDy=0;entryX=0.5;entryY=1;entryDx=0;entryDy=0;" edge="1" parent="1" source="TEoPaOZpnHWNgnak06fM-3" target="TEoPaOZpnHWNgnak06fM-1">
          <mxGeometry relative="1" as="geometry" />
        </mxCell>
        <mxCell id="TEoPaOZpnHWNgnak06fM-31" style="edgeStyle=orthogonalEdgeStyle;rounded=0;orthogonalLoop=1;jettySize=auto;html=1;exitX=1;exitY=0.25;exitDx=0;exitDy=0;entryX=0;entryY=0.5;entryDx=0;entryDy=0;" edge="1" parent="1" source="TEoPaOZpnHWNgnak06fM-3" target="TEoPaOZpnHWNgnak06fM-4">
          <mxGeometry relative="1" as="geometry" />
        </mxCell>
        <mxCell id="TEoPaOZpnHWNgnak06fM-3" value="&lt;div&gt;. nome&lt;/div&gt;&lt;div&gt;. telefone&lt;/div&gt;&lt;div&gt;. endereço&lt;/div&gt;" style="rounded=0;whiteSpace=wrap;html=1;" vertex="1" parent="1">
          <mxGeometry x="70" y="40" width="120" height="80" as="geometry" />
        </mxCell>
        <mxCell id="TEoPaOZpnHWNgnak06fM-32" style="edgeStyle=orthogonalEdgeStyle;rounded=0;orthogonalLoop=1;jettySize=auto;html=1;exitX=1;exitY=0.5;exitDx=0;exitDy=0;entryX=0;entryY=0.25;entryDx=0;entryDy=0;" edge="1" parent="1" source="TEoPaOZpnHWNgnak06fM-4" target="TEoPaOZpnHWNgnak06fM-22">
          <mxGeometry relative="1" as="geometry" />
        </mxCell>
        <mxCell id="TEoPaOZpnHWNgnak06fM-35" style="edgeStyle=orthogonalEdgeStyle;rounded=0;orthogonalLoop=1;jettySize=auto;html=1;exitX=0.5;exitY=1;exitDx=0;exitDy=0;" edge="1" parent="1" source="TEoPaOZpnHWNgnak06fM-4" target="TEoPaOZpnHWNgnak06fM-11">
          <mxGeometry relative="1" as="geometry" />
        </mxCell>
        <mxCell id="TEoPaOZpnHWNgnak06fM-4" value="Veículo" style="rhombus;whiteSpace=wrap;html=1;" vertex="1" parent="1">
          <mxGeometry x="260" y="10" width="80" height="90" as="geometry" />
        </mxCell>
        <mxCell id="TEoPaOZpnHWNgnak06fM-6" value="Ordem de Serviço" style="rounded=0;whiteSpace=wrap;html=1;" vertex="1" parent="1">
          <mxGeometry x="460" width="120" height="40" as="geometry" />
        </mxCell>
        <mxCell id="TEoPaOZpnHWNgnak06fM-43" style="edgeStyle=orthogonalEdgeStyle;rounded=0;orthogonalLoop=1;jettySize=auto;html=1;exitX=0.5;exitY=1;exitDx=0;exitDy=0;entryX=0.578;entryY=0.045;entryDx=0;entryDy=0;entryPerimeter=0;" edge="1" parent="1" source="TEoPaOZpnHWNgnak06fM-7" target="TEoPaOZpnHWNgnak06fM-14">
          <mxGeometry relative="1" as="geometry">
            <mxPoint x="500" y="280" as="targetPoint" />
            <Array as="points">
              <mxPoint x="560" y="120" />
              <mxPoint x="560" y="230" />
              <mxPoint x="499" y="230" />
            </Array>
          </mxGeometry>
        </mxCell>
        <mxCell id="TEoPaOZpnHWNgnak06fM-7" value="&lt;div&gt;· número&lt;/div&gt;&lt;div&gt;· data Emissâo&lt;/div&gt;&lt;div&gt;. valor Total&lt;/div&gt;&lt;div&gt;· status&lt;/div&gt;&lt;div&gt;· dataPrevista&lt;/div&gt;" style="rounded=0;whiteSpace=wrap;html=1;" vertex="1" parent="1">
          <mxGeometry x="460" y="40" width="120" height="80" as="geometry" />
        </mxCell>
        <mxCell id="TEoPaOZpnHWNgnak06fM-40" style="edgeStyle=orthogonalEdgeStyle;rounded=0;orthogonalLoop=1;jettySize=auto;html=1;exitX=1;exitY=0.5;exitDx=0;exitDy=0;entryX=0.405;entryY=-0.015;entryDx=0;entryDy=0;entryPerimeter=0;" edge="1" parent="1" source="TEoPaOZpnHWNgnak06fM-11" target="TEoPaOZpnHWNgnak06fM-14">
          <mxGeometry relative="1" as="geometry">
            <mxPoint x="480" y="280" as="targetPoint" />
          </mxGeometry>
        </mxCell>
        <mxCell id="TEoPaOZpnHWNgnak06fM-11" value="Possúi" style="rhombus;whiteSpace=wrap;html=1;" vertex="1" parent="1">
          <mxGeometry x="270" y="180" width="80" height="90" as="geometry" />
        </mxCell>
        <mxCell id="TEoPaOZpnHWNgnak06fM-12" value="Mecánico" style="rounded=0;whiteSpace=wrap;html=1;" vertex="1" parent="1">
          <mxGeometry x="70" y="200" width="120" height="40" as="geometry" />
        </mxCell>
        <mxCell id="TEoPaOZpnHWNgnak06fM-13" value="&lt;div&gt;. nome&lt;/div&gt;&lt;div&gt;· endereço&lt;/div&gt;&lt;div&gt;· especialidade&lt;/div&gt;" style="rounded=0;whiteSpace=wrap;html=1;" vertex="1" parent="1">
          <mxGeometry x="70" y="240" width="120" height="80" as="geometry" />
        </mxCell>
        <mxCell id="TEoPaOZpnHWNgnak06fM-14" value="Contém" style="rounded=0;whiteSpace=wrap;html=1;" vertex="1" parent="1">
          <mxGeometry x="430" y="285" width="120" height="40" as="geometry" />
        </mxCell>
        <mxCell id="TEoPaOZpnHWNgnak06fM-15" value="&lt;div&gt;· código&lt;/div&gt;&lt;div&gt;· vàlor&lt;/div&gt;" style="rounded=0;whiteSpace=wrap;html=1;" vertex="1" parent="1">
          <mxGeometry x="430" y="325" width="120" height="60" as="geometry" />
        </mxCell>
        <mxCell id="TEoPaOZpnHWNgnak06fM-16" value="Executa" style="rounded=0;whiteSpace=wrap;html=1;" vertex="1" parent="1">
          <mxGeometry x="260" y="340" width="90" height="30" as="geometry" />
        </mxCell>
        <mxCell id="TEoPaOZpnHWNgnak06fM-46" style="edgeStyle=orthogonalEdgeStyle;rounded=0;orthogonalLoop=1;jettySize=auto;html=1;exitX=0.5;exitY=1;exitDx=0;exitDy=0;entryX=0.5;entryY=0;entryDx=0;entryDy=0;" edge="1" parent="1" source="TEoPaOZpnHWNgnak06fM-17" target="TEoPaOZpnHWNgnak06fM-18">
          <mxGeometry relative="1" as="geometry" />
        </mxCell>
        <mxCell id="TEoPaOZpnHWNgnak06fM-17" value="N:M" style="rounded=0;whiteSpace=wrap;html=1;" vertex="1" parent="1">
          <mxGeometry x="260" y="370" width="90" height="30" as="geometry" />
        </mxCell>
        <mxCell id="TEoPaOZpnHWNgnak06fM-18" value="Mecànco" style="rounded=0;whiteSpace=wrap;html=1;" vertex="1" parent="1">
          <mxGeometry x="260" y="440" width="90" height="30" as="geometry" />
        </mxCell>
        <mxCell id="TEoPaOZpnHWNgnak06fM-19" value="especíalldade" style="rounded=0;whiteSpace=wrap;html=1;" vertex="1" parent="1">
          <mxGeometry x="260" y="470" width="90" height="30" as="geometry" />
        </mxCell>
        <mxCell id="TEoPaOZpnHWNgnak06fM-21" value="1:N" style="text;whiteSpace=wrap;" vertex="1" parent="1">
          <mxGeometry x="210" y="60" width="50" height="40" as="geometry" />
        </mxCell>
        <mxCell id="TEoPaOZpnHWNgnak06fM-34" style="edgeStyle=orthogonalEdgeStyle;rounded=0;orthogonalLoop=1;jettySize=auto;html=1;exitX=1;exitY=0.25;exitDx=0;exitDy=0;entryX=0;entryY=0.25;entryDx=0;entryDy=0;" edge="1" parent="1" source="TEoPaOZpnHWNgnak06fM-22" target="TEoPaOZpnHWNgnak06fM-7">
          <mxGeometry relative="1" as="geometry" />
        </mxCell>
        <mxCell id="TEoPaOZpnHWNgnak06fM-22" value="1:N" style="text;whiteSpace=wrap;" vertex="1" parent="1">
          <mxGeometry x="400" y="45" width="20" height="40" as="geometry" />
        </mxCell>
        <mxCell id="TEoPaOZpnHWNgnak06fM-23" value="1:N" style="text;whiteSpace=wrap;" vertex="1" parent="1">
          <mxGeometry x="280" y="130" width="50" height="40" as="geometry" />
        </mxCell>
        <mxCell id="TEoPaOZpnHWNgnak06fM-24" value="1:N" style="text;whiteSpace=wrap;" vertex="1" parent="1">
          <mxGeometry x="190" y="260" width="50" height="40" as="geometry" />
        </mxCell>
        <mxCell id="TEoPaOZpnHWNgnak06fM-25" value="N:M" style="text;whiteSpace=wrap;" vertex="1" parent="1">
          <mxGeometry x="330" y="310" width="60" height="40" as="geometry" />
        </mxCell>
        <mxCell id="TEoPaOZpnHWNgnak06fM-26" value="Avaliada por" style="text;whiteSpace=wrap;" vertex="1" parent="1">
          <mxGeometry x="450" y="180" width="100" height="40" as="geometry" />
        </mxCell>
        <mxCell id="TEoPaOZpnHWNgnak06fM-37" style="edgeStyle=orthogonalEdgeStyle;rounded=0;orthogonalLoop=1;jettySize=auto;html=1;exitX=0;exitY=0.5;exitDx=0;exitDy=0;entryX=1.032;entryY=0.125;entryDx=0;entryDy=0;entryPerimeter=0;" edge="1" parent="1" source="TEoPaOZpnHWNgnak06fM-11" target="TEoPaOZpnHWNgnak06fM-13">
          <mxGeometry relative="1" as="geometry" />
        </mxCell>
        <mxCell id="TEoPaOZpnHWNgnak06fM-45" style="edgeStyle=orthogonalEdgeStyle;rounded=0;orthogonalLoop=1;jettySize=auto;html=1;exitX=0.5;exitY=1;exitDx=0;exitDy=0;entryX=0.616;entryY=0.013;entryDx=0;entryDy=0;entryPerimeter=0;" edge="1" parent="1" source="TEoPaOZpnHWNgnak06fM-11" target="TEoPaOZpnHWNgnak06fM-16">
          <mxGeometry relative="1" as="geometry" />
        </mxCell>
      </root>
    </mxGraphModel>
  </diagram>
</mxfile>
